# xmcd
#
# Track frame offsets: 
#        150
#        18427
#        40036
#        56899
#        77660
#        96432
#        116358
#        135989
#        156640
#        176731
#        196273
#        212156
#        226675
#        243432
#
# Disc length: 3498 seconds
#
# Revision: 1
# Processed by: cddbd v1.5.2PL0 Copyright (c) Steve Scherf et al.
# Submitted via: ExactAudioCopy v0.99pb5
#
DISCID=b80da80e
DTITLE=I Fiò Dla Nebia - Nel 2000 a.c.
DYEAR=1900
DGENRE=Country
TTITLE0=Nel 2000 a.c.
TTITLE1=La maratona ad New York
TTITLE2=Il mio nome è Angelo (Angiòla)
TTITLE3=Vampiro Blues
TTITLE4=Al Nadal insi am pias no
TTITLE5=Alura m'anduma
TTITLE6=Per mare un fiume
TTITLE7=Un previ in Paradis
TTITLE8=Stramud
TTITLE9=Grimula
TTITLE10=My smorby blues
TTITLE11=So no 'nde 'nda
TTITLE12=Can e gat
TTITLE13=Una luna insi
EXTD=
EXTT0=
EXTT1=
EXTT2=
EXTT3=
EXTT4=
EXTT5=
EXTT6=
EXTT7=
EXTT8=
EXTT9=
EXTT10=
EXTT11=
EXTT12=
EXTT13=
PLAYORDER=
